<svg xmlns="http://www.w3.org/2000/svg" width="1190" height="376" fill="none"><path fill="#fff" d="M254 101V81l80-80h20v20l-80 80h-20ZM254 41V1h40l-40 40ZM354 61v40h-40l40-40Z"/><path stroke="#fff" d="M254 101V81l80-80h20v20l-80 80h-20ZM254 41V1h40l-40 40ZM354 61v40h-40l40-40Z"/><path fill="#fff" d="M254 353v-20l80-80h20v20l-80 80h-20ZM254 293v-40h40l-40 40ZM354 313v40h-40l40-40Z"/><path stroke="#fff" d="M254 353v-20l80-80h20v20l-80 80h-20ZM254 293v-40h40l-40 40ZM354 313v40h-40l40-40Z"/><path fill="#fff" d="M381 354v-20l80-80h20v20l-80 80h-20ZM381 294v-40h40l-40 40ZM481 314v40h-40l40-40Z"/><path stroke="#fff" d="M381 354v-20l80-80h20v20l-80 80h-20ZM381 294v-40h40l-40 40ZM481 314v40h-40l40-40Z"/><path fill="#fff" d="M508 355v-20l80-80h20v20l-80 80h-20ZM508 295v-40h40l-40 40ZM608 315v40h-40l40-40Z"/><path stroke="#fff" d="M508 355v-20l80-80h20v20l-80 80h-20ZM508 295v-40h40l-40 40ZM608 315v40h-40l40-40Z"/><path fill="#fff" d="M381 101V81l80-80h20v20l-80 80h-20ZM381 41V1h40l-40 40ZM481 61v40h-40l40-40Z"/><path stroke="#fff" d="M381 101V81l80-80h20v20l-80 80h-20ZM381 41V1h40l-40 40ZM481 61v40h-40l40-40Z"/><path fill="#fff" d="M508 101V81l80-80h20v20l-80 80h-20ZM508 41V1h40l-40 40ZM608 61v40h-40l40-40Z"/><path stroke="#fff" d="M508 101V81l80-80h20v20l-80 80h-20ZM508 41V1h40l-40 40ZM608 61v40h-40l40-40Z"/><path fill="#fff" d="M508 228v-20l80-80h20v20l-80 80h-20ZM508 168v-40h40l-40 40ZM608 188v40h-40l40-40Z"/><path stroke="#fff" d="M508 228v-20l80-80h20v20l-80 80h-20ZM508 168v-40h40l-40 40ZM608 188v40h-40l40-40Z"/><path fill="#C9177C" d="M381 128h100v99H381zM254 128h100v99H254zM0 2h100v99H0zM127 2h100v99H127zM127 254h100v99H127z"/><path fill="#fff" d="M845 161.86c8.5-45 72-38.5 72 0h-15.5c-4.5-27.5-39.226-20.757-40 0-.774 20.758-1.84 20.112 0 33 6 25 37 23 40 0H917c2 34-61.5 47.5-72 0-1.765-12.889-1.78-20.11 0-33ZM689.5 131.86v12.5h28v80.5h16v-80.5h29v-12.5h-73ZM687 13.36h18l23.5 72 23.5-72h17.5l-33 92.5h-16L687 13.36ZM780.5 13.36H796v80h42v12.5h-57.5v-92.5ZM773.5 131.86v93h61v-13h-44v-29h38v-12.5h-38v-25.5h44v-13h-61ZM917 43.36c0-38.5-63.5-45-72 0-1.78 12.89-1.765 20.11 0 33 10.5 47.5 74 34 72 0h-15.5c-3 23-34 25-40 0-1.84-12.889-.774-12.243 0-33 .774-20.758 35.5-27.5 40 0H917ZM931.5 131.86h16v38h42v-38h16v93h-16v-41h-42v41h-16v-93ZM926 248.86h79v17.5h-28.5v77.5h-23v-77.5H926v-17.5ZM915 276.86c1-38-72-41-72 0v2c0 4.141 6.633 15.501 17 19.501 11.524 4.446 17 5.64 26.5 11 4.135 2.889 5.648 4.106 5.5 7.5-.539 16.196-29 13.14-29-3.5h-23c0 38.5 76 45 75 0 .063-10.118-10.424-17.176-28.5-25.001-6.169-2.67-11.5-2.5-19.5-10.127l-1-1.373c-6-11 24.653-20.641 26 0h23ZM764 248.86h64.5v17h-42v21h35v16h-35v23h42v17.5H764v-94.5ZM689 343.36h22.5v-37.5h37v-18h-37v-22h41v-17H689v94.5ZM1032 248.36h11l-2.5 21h-6l-2.5-21Z"/><path stroke="#fff" d="M845 161.86c8.5-45 72-38.5 72 0h-15.5c-4.5-27.5-39.226-20.757-40 0-.774 20.758-1.84 20.112 0 33 6 25 37 23 40 0H917c2 34-61.5 47.5-72 0-1.765-12.889-1.78-20.11 0-33ZM689.5 131.86v12.5h28v80.5h16v-80.5h29v-12.5h-73ZM687 13.36h18l23.5 72 23.5-72h17.5l-33 92.5h-16L687 13.36ZM780.5 13.36H796v80h42v12.5h-57.5v-92.5ZM773.5 131.86v93h61v-13h-44v-29h38v-12.5h-38v-25.5h44v-13h-61ZM917 43.36c0-38.5-63.5-45-72 0-1.78 12.89-1.765 20.11 0 33 10.5 47.5 74 34 72 0h-15.5c-3 23-34 25-40 0-1.84-12.889-.774-12.243 0-33 .774-20.758 35.5-27.5 40 0H917ZM931.5 131.86h16v38h42v-38h16v93h-16v-41h-42v41h-16v-93ZM926 248.86h79v17.5h-28.5v77.5h-23v-77.5H926v-17.5ZM915 276.86c1-38-72-41-72 0v2c0 4.141 6.633 15.501 17 19.501 11.524 4.446 17 5.64 26.5 11 4.135 2.889 5.648 4.106 5.5 7.5-.539 16.196-29 13.14-29-3.5h-23c0 38.5 76 45 75 0 .063-10.118-10.424-17.176-28.5-25.001-6.169-2.67-11.5-2.5-19.5-10.127l-1-1.373c-6-11 24.653-20.641 26 0h23ZM764 248.86h64.5v17h-42v21h35v16h-35v23h42v17.5H764v-94.5ZM689 343.36h22.5v-37.5h37v-18h-37v-22h41v-17H689v94.5ZM1032 248.36h11l-2.5 21h-6l-2.5-21Z"/><path fill="#fff" d="M1111.5 330.938V345h-62.25v-12l29.44-31.562c2.96-3.292 5.29-6.188 7-8.688 1.71-2.542 2.93-4.812 3.69-6.812.79-2.042 1.18-3.98 1.18-5.813 0-2.75-.46-5.104-1.37-7.063-.92-2-2.27-3.541-4.07-4.624-1.74-1.084-3.91-1.626-6.5-1.626-2.74 0-5.12.667-7.12 2-1.96 1.334-3.46 3.188-4.5 5.563-1 2.375-1.5 5.063-1.5 8.063h-18.06c0-5.417 1.29-10.376 3.87-14.876 2.59-4.541 6.23-8.145 10.94-10.812 4.71-2.708 10.29-4.062 16.75-4.062 6.38 0 11.75 1.041 16.12 3.124 4.42 2.042 7.76 5 10 8.876 2.3 3.833 3.44 8.416 3.44 13.75 0 3-.48 5.937-1.44 8.812-.95 2.833-2.33 5.667-4.12 8.5-1.75 2.792-3.88 5.625-6.38 8.5s-5.27 5.854-8.31 8.938l-15.81 17.75h39Zm75-19.938v14.125h-65.56l-.88-10.937L1158 254h14.31l-15.5 25.938L1137.94 311h48.56Zm-10.31-57v91h-18v-91h18Z"/></svg>