<?xml version="1.0" encoding="utf-8"?>
<svg xmlns="http://www.w3.org/2000/svg" xmlns:xlink="http://www.w3.org/1999/xlink" xml:space="preserve" width="990" height="990" viewBox="0 0 990 990"><g fill="#30312f">
<g transform="translate(220,44) scale(3.7766666666667)"><rect width="6" height="6"/></g>
<g transform="translate(242,44) scale(3.7766666666667)"><rect width="6" height="6"/></g>
<g transform="translate(264,44) scale(3.7766666666667)"><rect width="6" height="6"/></g>
<g transform="translate(286,44) scale(3.7766666666667)"><rect width="6" height="6"/></g>
<g transform="translate(308,44) scale(3.7766666666667)"><rect width="6" height="6"/></g>
<g transform="translate(352,44) scale(3.7766666666667)"><rect width="6" height="6"/></g>
<g transform="translate(374,44) scale(3.7766666666667)"><rect width="6" height="6"/></g>
<g transform="translate(418,44) scale(3.7766666666667)"><rect width="6" height="6"/></g>
<g transform="translate(462,44) scale(3.7766666666667)"><rect width="6" height="6"/></g>
<g transform="translate(506,44) scale(3.7766666666667)"><rect width="6" height="6"/></g>
<g transform="translate(550,44) scale(3.7766666666667)"><rect width="6" height="6"/></g>
<g transform="translate(660,44) scale(3.7766666666667)"><rect width="6" height="6"/></g>
<g transform="translate(726,44) scale(3.7766666666667)"><rect width="6" height="6"/></g>
<g transform="translate(748,44) scale(3.7766666666667)"><rect width="6" height="6"/></g>
<g transform="translate(308,66) scale(3.7766666666667)"><rect width="6" height="6"/></g>
<g transform="translate(352,66) scale(3.7766666666667)"><rect width="6" height="6"/></g>
<g transform="translate(418,66) scale(3.7766666666667)"><rect width="6" height="6"/></g>
<g transform="translate(462,66) scale(3.7766666666667)"><rect width="6" height="6"/></g>
<g transform="translate(506,66) scale(3.7766666666667)"><rect width="6" height="6"/></g>
<g transform="translate(638,66) scale(3.7766666666667)"><rect width="6" height="6"/></g>
<g transform="translate(660,66) scale(3.7766666666667)"><rect width="6" height="6"/></g>
<g transform="translate(682,66) scale(3.7766666666667)"><rect width="6" height="6"/></g>
<g transform="translate(704,66) scale(3.7766666666667)"><rect width="6" height="6"/></g>
<g transform="translate(748,66) scale(3.7766666666667)"><rect width="6" height="6"/></g>
<g transform="translate(242,88) scale(3.7766666666667)"><rect width="6" height="6"/></g>
<g transform="translate(264,88) scale(3.7766666666667)"><rect width="6" height="6"/></g>
<g transform="translate(330,88) scale(3.7766666666667)"><rect width="6" height="6"/></g>
<g transform="translate(374,88) scale(3.7766666666667)"><rect width="6" height="6"/></g>
<g transform="translate(396,88) scale(3.7766666666667)"><rect width="6" height="6"/></g>
<g transform="translate(440,88) scale(3.7766666666667)"><rect width="6" height="6"/></g>
<g transform="translate(484,88) scale(3.7766666666667)"><rect width="6" height="6"/></g>
<g transform="translate(506,88) scale(3.7766666666667)"><rect width="6" height="6"/></g>
<g transform="translate(528,88) scale(3.7766666666667)"><rect width="6" height="6"/></g>
<g transform="translate(572,88) scale(3.7766666666667)"><rect width="6" height="6"/></g>
<g transform="translate(616,88) scale(3.7766666666667)"><rect width="6" height="6"/></g>
<g transform="translate(660,88) scale(3.7766666666667)"><rect width="6" height="6"/></g>
<g transform="translate(286,110) scale(3.7766666666667)"><rect width="6" height="6"/></g>
<g transform="translate(352,110) scale(3.7766666666667)"><rect width="6" height="6"/></g>
<g transform="translate(374,110) scale(3.7766666666667)"><rect width="6" height="6"/></g>
<g transform="translate(418,110) scale(3.7766666666667)"><rect width="6" height="6"/></g>
<g transform="translate(484,110) scale(3.7766666666667)"><rect width="6" height="6"/></g>
<g transform="translate(506,110) scale(3.7766666666667)"><rect width="6" height="6"/></g>
<g transform="translate(528,110) scale(3.7766666666667)"><rect width="6" height="6"/></g>
<g transform="translate(682,110) scale(3.7766666666667)"><rect width="6" height="6"/></g>
<g transform="translate(704,110) scale(3.7766666666667)"><rect width="6" height="6"/></g>
<g transform="translate(748,110) scale(3.7766666666667)"><rect width="6" height="6"/></g>
<g transform="translate(220,132) scale(3.7766666666667)"><rect width="6" height="6"/></g>
<g transform="translate(242,132) scale(3.7766666666667)"><rect width="6" height="6"/></g>
<g transform="translate(264,132) scale(3.7766666666667)"><rect width="6" height="6"/></g>
<g transform="translate(308,132) scale(3.7766666666667)"><rect width="6" height="6"/></g>
<g transform="translate(330,132) scale(3.7766666666667)"><rect width="6" height="6"/></g>
<g transform="translate(352,132) scale(3.7766666666667)"><rect width="6" height="6"/></g>
<g transform="translate(374,132) scale(3.7766666666667)"><rect width="6" height="6"/></g>
<g transform="translate(396,132) scale(3.7766666666667)"><rect width="6" height="6"/></g>
<g transform="translate(418,132) scale(3.7766666666667)"><rect width="6" height="6"/></g>
<g transform="translate(484,132) scale(3.7766666666667)"><rect width="6" height="6"/></g>
<g transform="translate(506,132) scale(3.7766666666667)"><rect width="6" height="6"/></g>
<g transform="translate(528,132) scale(3.7766666666667)"><rect width="6" height="6"/></g>
<g transform="translate(572,132) scale(3.7766666666667)"><rect width="6" height="6"/></g>
<g transform="translate(616,132) scale(3.7766666666667)"><rect width="6" height="6"/></g>
<g transform="translate(704,132) scale(3.7766666666667)"><rect width="6" height="6"/></g>
<g transform="translate(726,132) scale(3.7766666666667)"><rect width="6" height="6"/></g>
<g transform="translate(748,132) scale(3.7766666666667)"><rect width="6" height="6"/></g>
<g transform="translate(220,154) scale(3.7766666666667)"><rect width="6" height="6"/></g>
<g transform="translate(264,154) scale(3.7766666666667)"><rect width="6" height="6"/></g>
<g transform="translate(286,154) scale(3.7766666666667)"><rect width="6" height="6"/></g>
<g transform="translate(330,154) scale(3.7766666666667)"><rect width="6" height="6"/></g>
<g transform="translate(374,154) scale(3.7766666666667)"><rect width="6" height="6"/></g>
<g transform="translate(418,154) scale(3.7766666666667)"><rect width="6" height="6"/></g>
<g transform="translate(484,154) scale(3.7766666666667)"><rect width="6" height="6"/></g>
<g transform="translate(528,154) scale(3.7766666666667)"><rect width="6" height="6"/></g>
<g transform="translate(594,154) scale(3.7766666666667)"><rect width="6" height="6"/></g>
<g transform="translate(638,154) scale(3.7766666666667)"><rect width="6" height="6"/></g>
<g transform="translate(660,154) scale(3.7766666666667)"><rect width="6" height="6"/></g>
<g transform="translate(682,154) scale(3.7766666666667)"><rect width="6" height="6"/></g>
<g transform="translate(748,154) scale(3.7766666666667)"><rect width="6" height="6"/></g>
<g transform="translate(220,176) scale(3.7766666666667)"><rect width="6" height="6"/></g>
<g transform="translate(264,176) scale(3.7766666666667)"><rect width="6" height="6"/></g>
<g transform="translate(308,176) scale(3.7766666666667)"><rect width="6" height="6"/></g>
<g transform="translate(352,176) scale(3.7766666666667)"><rect width="6" height="6"/></g>
<g transform="translate(396,176) scale(3.7766666666667)"><rect width="6" height="6"/></g>
<g transform="translate(440,176) scale(3.7766666666667)"><rect width="6" height="6"/></g>
<g transform="translate(484,176) scale(3.7766666666667)"><rect width="6" height="6"/></g>
<g transform="translate(528,176) scale(3.7766666666667)"><rect width="6" height="6"/></g>
<g transform="translate(572,176) scale(3.7766666666667)"><rect width="6" height="6"/></g>
<g transform="translate(616,176) scale(3.7766666666667)"><rect width="6" height="6"/></g>
<g transform="translate(660,176) scale(3.7766666666667)"><rect width="6" height="6"/></g>
<g transform="translate(704,176) scale(3.7766666666667)"><rect width="6" height="6"/></g>
<g transform="translate(748,176) scale(3.7766666666667)"><rect width="6" height="6"/></g>
<g transform="translate(242,198) scale(3.7766666666667)"><rect width="6" height="6"/></g>
<g transform="translate(264,198) scale(3.7766666666667)"><rect width="6" height="6"/></g>
<g transform="translate(286,198) scale(3.7766666666667)"><rect width="6" height="6"/></g>
<g transform="translate(308,198) scale(3.7766666666667)"><rect width="6" height="6"/></g>
<g transform="translate(330,198) scale(3.7766666666667)"><rect width="6" height="6"/></g>
<g transform="translate(352,198) scale(3.7766666666667)"><rect width="6" height="6"/></g>
<g transform="translate(418,198) scale(3.7766666666667)"><rect width="6" height="6"/></g>
<g transform="translate(440,198) scale(3.7766666666667)"><rect width="6" height="6"/></g>
<g transform="translate(462,198) scale(3.7766666666667)"><rect width="6" height="6"/></g>
<g transform="translate(726,198) scale(3.7766666666667)"><rect width="6" height="6"/></g>
<g transform="translate(748,198) scale(3.7766666666667)"><rect width="6" height="6"/></g>
<g transform="translate(66,220) scale(3.7766666666667)"><rect width="6" height="6"/></g>
<g transform="translate(88,220) scale(3.7766666666667)"><rect width="6" height="6"/></g>
<g transform="translate(110,220) scale(3.7766666666667)"><rect width="6" height="6"/></g>
<g transform="translate(132,220) scale(3.7766666666667)"><rect width="6" height="6"/></g>
<g transform="translate(154,220) scale(3.7766666666667)"><rect width="6" height="6"/></g>
<g transform="translate(176,220) scale(3.7766666666667)"><rect width="6" height="6"/></g>
<g transform="translate(198,220) scale(3.7766666666667)"><rect width="6" height="6"/></g>
<g transform="translate(308,220) scale(3.7766666666667)"><rect width="6" height="6"/></g>
<g transform="translate(330,220) scale(3.7766666666667)"><rect width="6" height="6"/></g>
<g transform="translate(374,220) scale(3.7766666666667)"><rect width="6" height="6"/></g>
<g transform="translate(418,220) scale(3.7766666666667)"><rect width="6" height="6"/></g>
<g transform="translate(462,220) scale(3.7766666666667)"><rect width="6" height="6"/></g>
<g transform="translate(506,220) scale(3.7766666666667)"><rect width="6" height="6"/></g>
<g transform="translate(572,220) scale(3.7766666666667)"><rect width="6" height="6"/></g>
<g transform="translate(594,220) scale(3.7766666666667)"><rect width="6" height="6"/></g>
<g transform="translate(638,220) scale(3.7766666666667)"><rect width="6" height="6"/></g>
<g transform="translate(682,220) scale(3.7766666666667)"><rect width="6" height="6"/></g>
<g transform="translate(726,220) scale(3.7766666666667)"><rect width="6" height="6"/></g>
<g transform="translate(814,220) scale(3.7766666666667)"><rect width="6" height="6"/></g>
<g transform="translate(836,220) scale(3.7766666666667)"><rect width="6" height="6"/></g>
<g transform="translate(924,220) scale(3.7766666666667)"><rect width="6" height="6"/></g>
<g transform="translate(44,242) scale(3.7766666666667)"><rect width="6" height="6"/></g>
<g transform="translate(132,242) scale(3.7766666666667)"><rect width="6" height="6"/></g>
<g transform="translate(154,242) scale(3.7766666666667)"><rect width="6" height="6"/></g>
<g transform="translate(198,242) scale(3.7766666666667)"><rect width="6" height="6"/></g>
<g transform="translate(220,242) scale(3.7766666666667)"><rect width="6" height="6"/></g>
<g transform="translate(242,242) scale(3.7766666666667)"><rect width="6" height="6"/></g>
<g transform="translate(264,242) scale(3.7766666666667)"><rect width="6" height="6"/></g>
<g transform="translate(286,242) scale(3.7766666666667)"><rect width="6" height="6"/></g>
<g transform="translate(308,242) scale(3.7766666666667)"><rect width="6" height="6"/></g>
<g transform="translate(330,242) scale(3.7766666666667)"><rect width="6" height="6"/></g>
<g transform="translate(352,242) scale(3.7766666666667)"><rect width="6" height="6"/></g>
<g transform="translate(374,242) scale(3.7766666666667)"><rect width="6" height="6"/></g>
<g transform="translate(484,242) scale(3.7766666666667)"><rect width="6" height="6"/></g>
<g transform="translate(550,242) scale(3.7766666666667)"><rect width="6" height="6"/></g>
<g transform="translate(572,242) scale(3.7766666666667)"><rect width="6" height="6"/></g>
<g transform="translate(594,242) scale(3.7766666666667)"><rect width="6" height="6"/></g>
<g transform="translate(660,242) scale(3.7766666666667)"><rect width="6" height="6"/></g>
<g transform="translate(704,242) scale(3.7766666666667)"><rect width="6" height="6"/></g>
<g transform="translate(726,242) scale(3.7766666666667)"><rect width="6" height="6"/></g>
<g transform="translate(748,242) scale(3.7766666666667)"><rect width="6" height="6"/></g>
<g transform="translate(770,242) scale(3.7766666666667)"><rect width="6" height="6"/></g>
<g transform="translate(792,242) scale(3.7766666666667)"><rect width="6" height="6"/></g>
<g transform="translate(814,242) scale(3.7766666666667)"><rect width="6" height="6"/></g>
<g transform="translate(836,242) scale(3.7766666666667)"><rect width="6" height="6"/></g>
<g transform="translate(880,242) scale(3.7766666666667)"><rect width="6" height="6"/></g>
<g transform="translate(924,242) scale(3.7766666666667)"><rect width="6" height="6"/></g>
<g transform="translate(132,264) scale(3.7766666666667)"><rect width="6" height="6"/></g>
<g transform="translate(176,264) scale(3.7766666666667)"><rect width="6" height="6"/></g>
<g transform="translate(198,264) scale(3.7766666666667)"><rect width="6" height="6"/></g>
<g transform="translate(286,264) scale(3.7766666666667)"><rect width="6" height="6"/></g>
<g transform="translate(308,264) scale(3.7766666666667)"><rect width="6" height="6"/></g>
<g transform="translate(330,264) scale(3.7766666666667)"><rect width="6" height="6"/></g>
<g transform="translate(396,264) scale(3.7766666666667)"><rect width="6" height="6"/></g>
<g transform="translate(418,264) scale(3.7766666666667)"><rect width="6" height="6"/></g>
<g transform="translate(440,264) scale(3.7766666666667)"><rect width="6" height="6"/></g>
<g transform="translate(484,264) scale(3.7766666666667)"><rect width="6" height="6"/></g>
<g transform="translate(550,264) scale(3.7766666666667)"><rect width="6" height="6"/></g>
<g transform="translate(616,264) scale(3.7766666666667)"><rect width="6" height="6"/></g>
<g transform="translate(638,264) scale(3.7766666666667)"><rect width="6" height="6"/></g>
<g transform="translate(660,264) scale(3.7766666666667)"><rect width="6" height="6"/></g>
<g transform="translate(748,264) scale(3.7766666666667)"><rect width="6" height="6"/></g>
<g transform="translate(792,264) scale(3.7766666666667)"><rect width="6" height="6"/></g>
<g transform="translate(814,264) scale(3.7766666666667)"><rect width="6" height="6"/></g>
<g transform="translate(44,286) scale(3.7766666666667)"><rect width="6" height="6"/></g>
<g transform="translate(110,286) scale(3.7766666666667)"><rect width="6" height="6"/></g>
<g transform="translate(264,286) scale(3.7766666666667)"><rect width="6" height="6"/></g>
<g transform="translate(330,286) scale(3.7766666666667)"><rect width="6" height="6"/></g>
<g transform="translate(374,286) scale(3.7766666666667)"><rect width="6" height="6"/></g>
<g transform="translate(396,286) scale(3.7766666666667)"><rect width="6" height="6"/></g>
<g transform="translate(418,286) scale(3.7766666666667)"><rect width="6" height="6"/></g>
<g transform="translate(440,286) scale(3.7766666666667)"><rect width="6" height="6"/></g>
<g transform="translate(462,286) scale(3.7766666666667)"><rect width="6" height="6"/></g>
<g transform="translate(506,286) scale(3.7766666666667)"><rect width="6" height="6"/></g>
<g transform="translate(528,286) scale(3.7766666666667)"><rect width="6" height="6"/></g>
<g transform="translate(550,286) scale(3.7766666666667)"><rect width="6" height="6"/></g>
<g transform="translate(616,286) scale(3.7766666666667)"><rect width="6" height="6"/></g>
<g transform="translate(638,286) scale(3.7766666666667)"><rect width="6" height="6"/></g>
<g transform="translate(660,286) scale(3.7766666666667)"><rect width="6" height="6"/></g>
<g transform="translate(704,286) scale(3.7766666666667)"><rect width="6" height="6"/></g>
<g transform="translate(726,286) scale(3.7766666666667)"><rect width="6" height="6"/></g>
<g transform="translate(748,286) scale(3.7766666666667)"><rect width="6" height="6"/></g>
<g transform="translate(792,286) scale(3.7766666666667)"><rect width="6" height="6"/></g>
<g transform="translate(814,286) scale(3.7766666666667)"><rect width="6" height="6"/></g>
<g transform="translate(858,286) scale(3.7766666666667)"><rect width="6" height="6"/></g>
<g transform="translate(902,286) scale(3.7766666666667)"><rect width="6" height="6"/></g>
<g transform="translate(66,308) scale(3.7766666666667)"><rect width="6" height="6"/></g>
<g transform="translate(110,308) scale(3.7766666666667)"><rect width="6" height="6"/></g>
<g transform="translate(132,308) scale(3.7766666666667)"><rect width="6" height="6"/></g>
<g transform="translate(176,308) scale(3.7766666666667)"><rect width="6" height="6"/></g>
<g transform="translate(220,308) scale(3.7766666666667)"><rect width="6" height="6"/></g>
<g transform="translate(264,308) scale(3.7766666666667)"><rect width="6" height="6"/></g>
<g transform="translate(286,308) scale(3.7766666666667)"><rect width="6" height="6"/></g>
<g transform="translate(330,308) scale(3.7766666666667)"><rect width="6" height="6"/></g>
<g transform="translate(374,308) scale(3.7766666666667)"><rect width="6" height="6"/></g>
<g transform="translate(440,308) scale(3.7766666666667)"><rect width="6" height="6"/></g>
<g transform="translate(462,308) scale(3.7766666666667)"><rect width="6" height="6"/></g>
<g transform="translate(506,308) scale(3.7766666666667)"><rect width="6" height="6"/></g>
<g transform="translate(550,308) scale(3.7766666666667)"><rect width="6" height="6"/></g>
<g transform="translate(594,308) scale(3.7766666666667)"><rect width="6" height="6"/></g>
<g transform="translate(616,308) scale(3.7766666666667)"><rect width="6" height="6"/></g>
<g transform="translate(638,308) scale(3.7766666666667)"><rect width="6" height="6"/></g>
<g transform="translate(682,308) scale(3.7766666666667)"><rect width="6" height="6"/></g>
<g transform="translate(726,308) scale(3.7766666666667)"><rect width="6" height="6"/></g>
<g transform="translate(748,308) scale(3.7766666666667)"><rect width="6" height="6"/></g>
<g transform="translate(814,308) scale(3.7766666666667)"><rect width="6" height="6"/></g>
<g transform="translate(858,308) scale(3.7766666666667)"><rect width="6" height="6"/></g>
<g transform="translate(880,308) scale(3.7766666666667)"><rect width="6" height="6"/></g>
<g transform="translate(902,308) scale(3.7766666666667)"><rect width="6" height="6"/></g>
<g transform="translate(66,330) scale(3.7766666666667)"><rect width="6" height="6"/></g>
<g transform="translate(88,330) scale(3.7766666666667)"><rect width="6" height="6"/></g>
<g transform="translate(132,330) scale(3.7766666666667)"><rect width="6" height="6"/></g>
<g transform="translate(154,330) scale(3.7766666666667)"><rect width="6" height="6"/></g>
<g transform="translate(198,330) scale(3.7766666666667)"><rect width="6" height="6"/></g>
<g transform="translate(264,330) scale(3.7766666666667)"><rect width="6" height="6"/></g>
<g transform="translate(286,330) scale(3.7766666666667)"><rect width="6" height="6"/></g>
<g transform="translate(352,330) scale(3.7766666666667)"><rect width="6" height="6"/></g>
<g transform="translate(396,330) scale(3.7766666666667)"><rect width="6" height="6"/></g>
<g transform="translate(418,330) scale(3.7766666666667)"><rect width="6" height="6"/></g>
<g transform="translate(440,330) scale(3.7766666666667)"><rect width="6" height="6"/></g>
<g transform="translate(462,330) scale(3.7766666666667)"><rect width="6" height="6"/></g>
<g transform="translate(484,330) scale(3.7766666666667)"><rect width="6" height="6"/></g>
<g transform="translate(506,330) scale(3.7766666666667)"><rect width="6" height="6"/></g>
<g transform="translate(572,330) scale(3.7766666666667)"><rect width="6" height="6"/></g>
<g transform="translate(638,330) scale(3.7766666666667)"><rect width="6" height="6"/></g>
<g transform="translate(660,330) scale(3.7766666666667)"><rect width="6" height="6"/></g>
<g transform="translate(704,330) scale(3.7766666666667)"><rect width="6" height="6"/></g>
<g transform="translate(726,330) scale(3.7766666666667)"><rect width="6" height="6"/></g>
<g transform="translate(748,330) scale(3.7766666666667)"><rect width="6" height="6"/></g>
<g transform="translate(770,330) scale(3.7766666666667)"><rect width="6" height="6"/></g>
<g transform="translate(792,330) scale(3.7766666666667)"><rect width="6" height="6"/></g>
<g transform="translate(814,330) scale(3.7766666666667)"><rect width="6" height="6"/></g>
<g transform="translate(836,330) scale(3.7766666666667)"><rect width="6" height="6"/></g>
<g transform="translate(880,330) scale(3.7766666666667)"><rect width="6" height="6"/></g>
<g transform="translate(902,330) scale(3.7766666666667)"><rect width="6" height="6"/></g>
<g transform="translate(924,330) scale(3.7766666666667)"><rect width="6" height="6"/></g>
<g transform="translate(66,352) scale(3.7766666666667)"><rect width="6" height="6"/></g>
<g transform="translate(88,352) scale(3.7766666666667)"><rect width="6" height="6"/></g>
<g transform="translate(110,352) scale(3.7766666666667)"><rect width="6" height="6"/></g>
<g transform="translate(132,352) scale(3.7766666666667)"><rect width="6" height="6"/></g>
<g transform="translate(176,352) scale(3.7766666666667)"><rect width="6" height="6"/></g>
<g transform="translate(242,352) scale(3.7766666666667)"><rect width="6" height="6"/></g>
<g transform="translate(286,352) scale(3.7766666666667)"><rect width="6" height="6"/></g>
<g transform="translate(308,352) scale(3.7766666666667)"><rect width="6" height="6"/></g>
<g transform="translate(330,352) scale(3.7766666666667)"><rect width="6" height="6"/></g>
<g transform="translate(352,352) scale(3.7766666666667)"><rect width="6" height="6"/></g>
<g transform="translate(418,352) scale(3.7766666666667)"><rect width="6" height="6"/></g>
<g transform="translate(440,352) scale(3.7766666666667)"><rect width="6" height="6"/></g>
<g transform="translate(528,352) scale(3.7766666666667)"><rect width="6" height="6"/></g>
<g transform="translate(594,352) scale(3.7766666666667)"><rect width="6" height="6"/></g>
<g transform="translate(682,352) scale(3.7766666666667)"><rect width="6" height="6"/></g>
<g transform="translate(704,352) scale(3.7766666666667)"><rect width="6" height="6"/></g>
<g transform="translate(770,352) scale(3.7766666666667)"><rect width="6" height="6"/></g>
<g transform="translate(814,352) scale(3.7766666666667)"><rect width="6" height="6"/></g>
<g transform="translate(836,352) scale(3.7766666666667)"><rect width="6" height="6"/></g>
<g transform="translate(880,352) scale(3.7766666666667)"><rect width="6" height="6"/></g>
<g transform="translate(902,352) scale(3.7766666666667)"><rect width="6" height="6"/></g>
<g transform="translate(44,374) scale(3.7766666666667)"><rect width="6" height="6"/></g>
<g transform="translate(66,374) scale(3.7766666666667)"><rect width="6" height="6"/></g>
<g transform="translate(110,374) scale(3.7766666666667)"><rect width="6" height="6"/></g>
<g transform="translate(198,374) scale(3.7766666666667)"><rect width="6" height="6"/></g>
<g transform="translate(220,374) scale(3.7766666666667)"><rect width="6" height="6"/></g>
<g transform="translate(242,374) scale(3.7766666666667)"><rect width="6" height="6"/></g>
<g transform="translate(264,374) scale(3.7766666666667)"><rect width="6" height="6"/></g>
<g transform="translate(286,374) scale(3.7766666666667)"><rect width="6" height="6"/></g>
<g transform="translate(308,374) scale(3.7766666666667)"><rect width="6" height="6"/></g>
<g transform="translate(330,374) scale(3.7766666666667)"><rect width="6" height="6"/></g>
<g transform="translate(352,374) scale(3.7766666666667)"><rect width="6" height="6"/></g>
<g transform="translate(374,374) scale(3.7766666666667)"><rect width="6" height="6"/></g>
<g transform="translate(462,374) scale(3.7766666666667)"><rect width="6" height="6"/></g>
<g transform="translate(572,374) scale(3.7766666666667)"><rect width="6" height="6"/></g>
<g transform="translate(616,374) scale(3.7766666666667)"><rect width="6" height="6"/></g>
<g transform="translate(660,374) scale(3.7766666666667)"><rect width="6" height="6"/></g>
<g transform="translate(726,374) scale(3.7766666666667)"><rect width="6" height="6"/></g>
<g transform="translate(792,374) scale(3.7766666666667)"><rect width="6" height="6"/></g>
<g transform="translate(836,374) scale(3.7766666666667)"><rect width="6" height="6"/></g>
<g transform="translate(858,374) scale(3.7766666666667)"><rect width="6" height="6"/></g>
<g transform="translate(902,374) scale(3.7766666666667)"><rect width="6" height="6"/></g>
<g transform="translate(44,396) scale(3.7766666666667)"><rect width="6" height="6"/></g>
<g transform="translate(66,396) scale(3.7766666666667)"><rect width="6" height="6"/></g>
<g transform="translate(88,396) scale(3.7766666666667)"><rect width="6" height="6"/></g>
<g transform="translate(132,396) scale(3.7766666666667)"><rect width="6" height="6"/></g>
<g transform="translate(176,396) scale(3.7766666666667)"><rect width="6" height="6"/></g>
<g transform="translate(198,396) scale(3.7766666666667)"><rect width="6" height="6"/></g>
<g transform="translate(286,396) scale(3.7766666666667)"><rect width="6" height="6"/></g>
<g transform="translate(308,396) scale(3.7766666666667)"><rect width="6" height="6"/></g>
<g transform="translate(330,396) scale(3.7766666666667)"><rect width="6" height="6"/></g>
<g transform="translate(374,396) scale(3.7766666666667)"><rect width="6" height="6"/></g>
<g transform="translate(396,396) scale(3.7766666666667)"><rect width="6" height="6"/></g>
<g transform="translate(462,396) scale(3.7766666666667)"><rect width="6" height="6"/></g>
<g transform="translate(484,396) scale(3.7766666666667)"><rect width="6" height="6"/></g>
<g transform="translate(506,396) scale(3.7766666666667)"><rect width="6" height="6"/></g>
<g transform="translate(528,396) scale(3.7766666666667)"><rect width="6" height="6"/></g>
<g transform="translate(572,396) scale(3.7766666666667)"><rect width="6" height="6"/></g>
<g transform="translate(594,396) scale(3.7766666666667)"><rect width="6" height="6"/></g>
<g transform="translate(616,396) scale(3.7766666666667)"><rect width="6" height="6"/></g>
<g transform="translate(682,396) scale(3.7766666666667)"><rect width="6" height="6"/></g>
<g transform="translate(726,396) scale(3.7766666666667)"><rect width="6" height="6"/></g>
<g transform="translate(770,396) scale(3.7766666666667)"><rect width="6" height="6"/></g>
<g transform="translate(814,396) scale(3.7766666666667)"><rect width="6" height="6"/></g>
<g transform="translate(880,396) scale(3.7766666666667)"><rect width="6" height="6"/></g>
<g transform="translate(110,418) scale(3.7766666666667)"><rect width="6" height="6"/></g>
<g transform="translate(154,418) scale(3.7766666666667)"><rect width="6" height="6"/></g>
<g transform="translate(198,418) scale(3.7766666666667)"><rect width="6" height="6"/></g>
<g transform="translate(220,418) scale(3.7766666666667)"><rect width="6" height="6"/></g>
<g transform="translate(242,418) scale(3.7766666666667)"><rect width="6" height="6"/></g>
<g transform="translate(286,418) scale(3.7766666666667)"><rect width="6" height="6"/></g>
<g transform="translate(330,418) scale(3.7766666666667)"><rect width="6" height="6"/></g>
<g transform="translate(352,418) scale(3.7766666666667)"><rect width="6" height="6"/></g>
<g transform="translate(462,418) scale(3.7766666666667)"><rect width="6" height="6"/></g>
<g transform="translate(484,418) scale(3.7766666666667)"><rect width="6" height="6"/></g>
<g transform="translate(506,418) scale(3.7766666666667)"><rect width="6" height="6"/></g>
<g transform="translate(528,418) scale(3.7766666666667)"><rect width="6" height="6"/></g>
<g transform="translate(550,418) scale(3.7766666666667)"><rect width="6" height="6"/></g>
<g transform="translate(594,418) scale(3.7766666666667)"><rect width="6" height="6"/></g>
<g transform="translate(682,418) scale(3.7766666666667)"><rect width="6" height="6"/></g>
<g transform="translate(726,418) scale(3.7766666666667)"><rect width="6" height="6"/></g>
<g transform="translate(748,418) scale(3.7766666666667)"><rect width="6" height="6"/></g>
<g transform="translate(792,418) scale(3.7766666666667)"><rect width="6" height="6"/></g>
<g transform="translate(814,418) scale(3.7766666666667)"><rect width="6" height="6"/></g>
<g transform="translate(836,418) scale(3.7766666666667)"><rect width="6" height="6"/></g>
<g transform="translate(858,418) scale(3.7766666666667)"><rect width="6" height="6"/></g>
<g transform="translate(880,418) scale(3.7766666666667)"><rect width="6" height="6"/></g>
<g transform="translate(902,418) scale(3.7766666666667)"><rect width="6" height="6"/></g>
<g transform="translate(924,418) scale(3.7766666666667)"><rect width="6" height="6"/></g>
<g transform="translate(66,440) scale(3.7766666666667)"><rect width="6" height="6"/></g>
<g transform="translate(110,440) scale(3.7766666666667)"><rect width="6" height="6"/></g>
<g transform="translate(132,440) scale(3.7766666666667)"><rect width="6" height="6"/></g>
<g transform="translate(176,440) scale(3.7766666666667)"><rect width="6" height="6"/></g>
<g transform="translate(198,440) scale(3.7766666666667)"><rect width="6" height="6"/></g>
<g transform="translate(220,440) scale(3.7766666666667)"><rect width="6" height="6"/></g>
<g transform="translate(242,440) scale(3.7766666666667)"><rect width="6" height="6"/></g>
<g transform="translate(308,440) scale(3.7766666666667)"><rect width="6" height="6"/></g>
<g transform="translate(352,440) scale(3.7766666666667)"><rect width="6" height="6"/></g>
<g transform="translate(374,440) scale(3.7766666666667)"><rect width="6" height="6"/></g>
<g transform="translate(396,440) scale(3.7766666666667)"><rect width="6" height="6"/></g>
<g transform="translate(506,440) scale(3.7766666666667)"><rect width="6" height="6"/></g>
<g transform="translate(528,440) scale(3.7766666666667)"><rect width="6" height="6"/></g>
<g transform="translate(594,440) scale(3.7766666666667)"><rect width="6" height="6"/></g>
<g transform="translate(616,440) scale(3.7766666666667)"><rect width="6" height="6"/></g>
<g transform="translate(638,440) scale(3.7766666666667)"><rect width="6" height="6"/></g>
<g transform="translate(682,440) scale(3.7766666666667)"><rect width="6" height="6"/></g>
<g transform="translate(748,440) scale(3.7766666666667)"><rect width="6" height="6"/></g>
<g transform="translate(836,440) scale(3.7766666666667)"><rect width="6" height="6"/></g>
<g transform="translate(858,440) scale(3.7766666666667)"><rect width="6" height="6"/></g>
<g transform="translate(880,440) scale(3.7766666666667)"><rect width="6" height="6"/></g>
<g transform="translate(286,462) scale(3.7766666666667)"><rect width="6" height="6"/></g>
<g transform="translate(330,462) scale(3.7766666666667)"><rect width="6" height="6"/></g>
<g transform="translate(352,462) scale(3.7766666666667)"><rect width="6" height="6"/></g>
<g transform="translate(374,462) scale(3.7766666666667)"><rect width="6" height="6"/></g>
<g transform="translate(418,462) scale(3.7766666666667)"><rect width="6" height="6"/></g>
<g transform="translate(484,462) scale(3.7766666666667)"><rect width="6" height="6"/></g>
<g transform="translate(506,462) scale(3.7766666666667)"><rect width="6" height="6"/></g>
<g transform="translate(528,462) scale(3.7766666666667)"><rect width="6" height="6"/></g>
<g transform="translate(550,462) scale(3.7766666666667)"><rect width="6" height="6"/></g>
<g transform="translate(572,462) scale(3.7766666666667)"><rect width="6" height="6"/></g>
<g transform="translate(594,462) scale(3.7766666666667)"><rect width="6" height="6"/></g>
<g transform="translate(748,462) scale(3.7766666666667)"><rect width="6" height="6"/></g>
<g transform="translate(770,462) scale(3.7766666666667)"><rect width="6" height="6"/></g>
<g transform="translate(792,462) scale(3.7766666666667)"><rect width="6" height="6"/></g>
<g transform="translate(836,462) scale(3.7766666666667)"><rect width="6" height="6"/></g>
<g transform="translate(858,462) scale(3.7766666666667)"><rect width="6" height="6"/></g>
<g transform="translate(924,462) scale(3.7766666666667)"><rect width="6" height="6"/></g>
<g transform="translate(66,484) scale(3.7766666666667)"><rect width="6" height="6"/></g>
<g transform="translate(88,484) scale(3.7766666666667)"><rect width="6" height="6"/></g>
<g transform="translate(154,484) scale(3.7766666666667)"><rect width="6" height="6"/></g>
<g transform="translate(176,484) scale(3.7766666666667)"><rect width="6" height="6"/></g>
<g transform="translate(242,484) scale(3.7766666666667)"><rect width="6" height="6"/></g>
<g transform="translate(264,484) scale(3.7766666666667)"><rect width="6" height="6"/></g>
<g transform="translate(286,484) scale(3.7766666666667)"><rect width="6" height="6"/></g>
<g transform="translate(308,484) scale(3.7766666666667)"><rect width="6" height="6"/></g>
<g transform="translate(330,484) scale(3.7766666666667)"><rect width="6" height="6"/></g>
<g transform="translate(396,484) scale(3.7766666666667)"><rect width="6" height="6"/></g>
<g transform="translate(418,484) scale(3.7766666666667)"><rect width="6" height="6"/></g>
<g transform="translate(484,484) scale(3.7766666666667)"><rect width="6" height="6"/></g>
<g transform="translate(506,484) scale(3.7766666666667)"><rect width="6" height="6"/></g>
<g transform="translate(616,484) scale(3.7766666666667)"><rect width="6" height="6"/></g>
<g transform="translate(638,484) scale(3.7766666666667)"><rect width="6" height="6"/></g>
<g transform="translate(660,484) scale(3.7766666666667)"><rect width="6" height="6"/></g>
<g transform="translate(704,484) scale(3.7766666666667)"><rect width="6" height="6"/></g>
<g transform="translate(726,484) scale(3.7766666666667)"><rect width="6" height="6"/></g>
<g transform="translate(880,484) scale(3.7766666666667)"><rect width="6" height="6"/></g>
<g transform="translate(924,484) scale(3.7766666666667)"><rect width="6" height="6"/></g>
<g transform="translate(66,506) scale(3.7766666666667)"><rect width="6" height="6"/></g>
<g transform="translate(110,506) scale(3.7766666666667)"><rect width="6" height="6"/></g>
<g transform="translate(242,506) scale(3.7766666666667)"><rect width="6" height="6"/></g>
<g transform="translate(264,506) scale(3.7766666666667)"><rect width="6" height="6"/></g>
<g transform="translate(286,506) scale(3.7766666666667)"><rect width="6" height="6"/></g>
<g transform="translate(308,506) scale(3.7766666666667)"><rect width="6" height="6"/></g>
<g transform="translate(352,506) scale(3.7766666666667)"><rect width="6" height="6"/></g>
<g transform="translate(374,506) scale(3.7766666666667)"><rect width="6" height="6"/></g>
<g transform="translate(484,506) scale(3.7766666666667)"><rect width="6" height="6"/></g>
<g transform="translate(506,506) scale(3.7766666666667)"><rect width="6" height="6"/></g>
<g transform="translate(528,506) scale(3.7766666666667)"><rect width="6" height="6"/></g>
<g transform="translate(550,506) scale(3.7766666666667)"><rect width="6" height="6"/></g>
<g transform="translate(594,506) scale(3.7766666666667)"><rect width="6" height="6"/></g>
<g transform="translate(660,506) scale(3.7766666666667)"><rect width="6" height="6"/></g>
<g transform="translate(682,506) scale(3.7766666666667)"><rect width="6" height="6"/></g>
<g transform="translate(704,506) scale(3.7766666666667)"><rect width="6" height="6"/></g>
<g transform="translate(726,506) scale(3.7766666666667)"><rect width="6" height="6"/></g>
<g transform="translate(770,506) scale(3.7766666666667)"><rect width="6" height="6"/></g>
<g transform="translate(792,506) scale(3.7766666666667)"><rect width="6" height="6"/></g>
<g transform="translate(814,506) scale(3.7766666666667)"><rect width="6" height="6"/></g>
<g transform="translate(836,506) scale(3.7766666666667)"><rect width="6" height="6"/></g>
<g transform="translate(858,506) scale(3.7766666666667)"><rect width="6" height="6"/></g>
<g transform="translate(902,506) scale(3.7766666666667)"><rect width="6" height="6"/></g>
<g transform="translate(924,506) scale(3.7766666666667)"><rect width="6" height="6"/></g>
<g transform="translate(44,528) scale(3.7766666666667)"><rect width="6" height="6"/></g>
<g transform="translate(110,528) scale(3.7766666666667)"><rect width="6" height="6"/></g>
<g transform="translate(132,528) scale(3.7766666666667)"><rect width="6" height="6"/></g>
<g transform="translate(176,528) scale(3.7766666666667)"><rect width="6" height="6"/></g>
<g transform="translate(198,528) scale(3.7766666666667)"><rect width="6" height="6"/></g>
<g transform="translate(220,528) scale(3.7766666666667)"><rect width="6" height="6"/></g>
<g transform="translate(242,528) scale(3.7766666666667)"><rect width="6" height="6"/></g>
<g transform="translate(264,528) scale(3.7766666666667)"><rect width="6" height="6"/></g>
<g transform="translate(330,528) scale(3.7766666666667)"><rect width="6" height="6"/></g>
<g transform="translate(374,528) scale(3.7766666666667)"><rect width="6" height="6"/></g>
<g transform="translate(440,528) scale(3.7766666666667)"><rect width="6" height="6"/></g>
<g transform="translate(462,528) scale(3.7766666666667)"><rect width="6" height="6"/></g>
<g transform="translate(506,528) scale(3.7766666666667)"><rect width="6" height="6"/></g>
<g transform="translate(594,528) scale(3.7766666666667)"><rect width="6" height="6"/></g>
<g transform="translate(616,528) scale(3.7766666666667)"><rect width="6" height="6"/></g>
<g transform="translate(638,528) scale(3.7766666666667)"><rect width="6" height="6"/></g>
<g transform="translate(660,528) scale(3.7766666666667)"><rect width="6" height="6"/></g>
<g transform="translate(704,528) scale(3.7766666666667)"><rect width="6" height="6"/></g>
<g transform="translate(770,528) scale(3.7766666666667)"><rect width="6" height="6"/></g>
<g transform="translate(814,528) scale(3.7766666666667)"><rect width="6" height="6"/></g>
<g transform="translate(836,528) scale(3.7766666666667)"><rect width="6" height="6"/></g>
<g transform="translate(66,550) scale(3.7766666666667)"><rect width="6" height="6"/></g>
<g transform="translate(88,550) scale(3.7766666666667)"><rect width="6" height="6"/></g>
<g transform="translate(132,550) scale(3.7766666666667)"><rect width="6" height="6"/></g>
<g transform="translate(154,550) scale(3.7766666666667)"><rect width="6" height="6"/></g>
<g transform="translate(220,550) scale(3.7766666666667)"><rect width="6" height="6"/></g>
<g transform="translate(242,550) scale(3.7766666666667)"><rect width="6" height="6"/></g>
<g transform="translate(286,550) scale(3.7766666666667)"><rect width="6" height="6"/></g>
<g transform="translate(330,550) scale(3.7766666666667)"><rect width="6" height="6"/></g>
<g transform="translate(374,550) scale(3.7766666666667)"><rect width="6" height="6"/></g>
<g transform="translate(418,550) scale(3.7766666666667)"><rect width="6" height="6"/></g>
<g transform="translate(462,550) scale(3.7766666666667)"><rect width="6" height="6"/></g>
<g transform="translate(506,550) scale(3.7766666666667)"><rect width="6" height="6"/></g>
<g transform="translate(550,550) scale(3.7766666666667)"><rect width="6" height="6"/></g>
<g transform="translate(748,550) scale(3.7766666666667)"><rect width="6" height="6"/></g>
<g transform="translate(770,550) scale(3.7766666666667)"><rect width="6" height="6"/></g>
<g transform="translate(792,550) scale(3.7766666666667)"><rect width="6" height="6"/></g>
<g transform="translate(814,550) scale(3.7766666666667)"><rect width="6" height="6"/></g>
<g transform="translate(858,550) scale(3.7766666666667)"><rect width="6" height="6"/></g>
<g transform="translate(902,550) scale(3.7766666666667)"><rect width="6" height="6"/></g>
<g transform="translate(924,550) scale(3.7766666666667)"><rect width="6" height="6"/></g>
<g transform="translate(44,572) scale(3.7766666666667)"><rect width="6" height="6"/></g>
<g transform="translate(66,572) scale(3.7766666666667)"><rect width="6" height="6"/></g>
<g transform="translate(88,572) scale(3.7766666666667)"><rect width="6" height="6"/></g>
<g transform="translate(110,572) scale(3.7766666666667)"><rect width="6" height="6"/></g>
<g transform="translate(154,572) scale(3.7766666666667)"><rect width="6" height="6"/></g>
<g transform="translate(176,572) scale(3.7766666666667)"><rect width="6" height="6"/></g>
<g transform="translate(220,572) scale(3.7766666666667)"><rect width="6" height="6"/></g>
<g transform="translate(242,572) scale(3.7766666666667)"><rect width="6" height="6"/></g>
<g transform="translate(264,572) scale(3.7766666666667)"><rect width="6" height="6"/></g>
<g transform="translate(286,572) scale(3.7766666666667)"><rect width="6" height="6"/></g>
<g transform="translate(374,572) scale(3.7766666666667)"><rect width="6" height="6"/></g>
<g transform="translate(396,572) scale(3.7766666666667)"><rect width="6" height="6"/></g>
<g transform="translate(440,572) scale(3.7766666666667)"><rect width="6" height="6"/></g>
<g transform="translate(462,572) scale(3.7766666666667)"><rect width="6" height="6"/></g>
<g transform="translate(484,572) scale(3.7766666666667)"><rect width="6" height="6"/></g>
<g transform="translate(506,572) scale(3.7766666666667)"><rect width="6" height="6"/></g>
<g transform="translate(550,572) scale(3.7766666666667)"><rect width="6" height="6"/></g>
<g transform="translate(572,572) scale(3.7766666666667)"><rect width="6" height="6"/></g>
<g transform="translate(594,572) scale(3.7766666666667)"><rect width="6" height="6"/></g>
<g transform="translate(616,572) scale(3.7766666666667)"><rect width="6" height="6"/></g>
<g transform="translate(660,572) scale(3.7766666666667)"><rect width="6" height="6"/></g>
<g transform="translate(682,572) scale(3.7766666666667)"><rect width="6" height="6"/></g>
<g transform="translate(726,572) scale(3.7766666666667)"><rect width="6" height="6"/></g>
<g transform="translate(770,572) scale(3.7766666666667)"><rect width="6" height="6"/></g>
<g transform="translate(858,572) scale(3.7766666666667)"><rect width="6" height="6"/></g>
<g transform="translate(880,572) scale(3.7766666666667)"><rect width="6" height="6"/></g>
<g transform="translate(902,572) scale(3.7766666666667)"><rect width="6" height="6"/></g>
<g transform="translate(66,594) scale(3.7766666666667)"><rect width="6" height="6"/></g>
<g transform="translate(110,594) scale(3.7766666666667)"><rect width="6" height="6"/></g>
<g transform="translate(198,594) scale(3.7766666666667)"><rect width="6" height="6"/></g>
<g transform="translate(242,594) scale(3.7766666666667)"><rect width="6" height="6"/></g>
<g transform="translate(286,594) scale(3.7766666666667)"><rect width="6" height="6"/></g>
<g transform="translate(330,594) scale(3.7766666666667)"><rect width="6" height="6"/></g>
<g transform="translate(374,594) scale(3.7766666666667)"><rect width="6" height="6"/></g>
<g transform="translate(440,594) scale(3.7766666666667)"><rect width="6" height="6"/></g>
<g transform="translate(550,594) scale(3.7766666666667)"><rect width="6" height="6"/></g>
<g transform="translate(660,594) scale(3.7766666666667)"><rect width="6" height="6"/></g>
<g transform="translate(726,594) scale(3.7766666666667)"><rect width="6" height="6"/></g>
<g transform="translate(770,594) scale(3.7766666666667)"><rect width="6" height="6"/></g>
<g transform="translate(792,594) scale(3.7766666666667)"><rect width="6" height="6"/></g>
<g transform="translate(814,594) scale(3.7766666666667)"><rect width="6" height="6"/></g>
<g transform="translate(836,594) scale(3.7766666666667)"><rect width="6" height="6"/></g>
<g transform="translate(858,594) scale(3.7766666666667)"><rect width="6" height="6"/></g>
<g transform="translate(924,594) scale(3.7766666666667)"><rect width="6" height="6"/></g>
<g transform="translate(132,616) scale(3.7766666666667)"><rect width="6" height="6"/></g>
<g transform="translate(176,616) scale(3.7766666666667)"><rect width="6" height="6"/></g>
<g transform="translate(220,616) scale(3.7766666666667)"><rect width="6" height="6"/></g>
<g transform="translate(264,616) scale(3.7766666666667)"><rect width="6" height="6"/></g>
<g transform="translate(286,616) scale(3.7766666666667)"><rect width="6" height="6"/></g>
<g transform="translate(374,616) scale(3.7766666666667)"><rect width="6" height="6"/></g>
<g transform="translate(418,616) scale(3.7766666666667)"><rect width="6" height="6"/></g>
<g transform="translate(484,616) scale(3.7766666666667)"><rect width="6" height="6"/></g>
<g transform="translate(528,616) scale(3.7766666666667)"><rect width="6" height="6"/></g>
<g transform="translate(638,616) scale(3.7766666666667)"><rect width="6" height="6"/></g>
<g transform="translate(704,616) scale(3.7766666666667)"><rect width="6" height="6"/></g>
<g transform="translate(748,616) scale(3.7766666666667)"><rect width="6" height="6"/></g>
<g transform="translate(836,616) scale(3.7766666666667)"><rect width="6" height="6"/></g>
<g transform="translate(110,638) scale(3.7766666666667)"><rect width="6" height="6"/></g>
<g transform="translate(198,638) scale(3.7766666666667)"><rect width="6" height="6"/></g>
<g transform="translate(242,638) scale(3.7766666666667)"><rect width="6" height="6"/></g>
<g transform="translate(264,638) scale(3.7766666666667)"><rect width="6" height="6"/></g>
<g transform="translate(286,638) scale(3.7766666666667)"><rect width="6" height="6"/></g>
<g transform="translate(374,638) scale(3.7766666666667)"><rect width="6" height="6"/></g>
<g transform="translate(418,638) scale(3.7766666666667)"><rect width="6" height="6"/></g>
<g transform="translate(550,638) scale(3.7766666666667)"><rect width="6" height="6"/></g>
<g transform="translate(616,638) scale(3.7766666666667)"><rect width="6" height="6"/></g>
<g transform="translate(638,638) scale(3.7766666666667)"><rect width="6" height="6"/></g>
<g transform="translate(726,638) scale(3.7766666666667)"><rect width="6" height="6"/></g>
<g transform="translate(748,638) scale(3.7766666666667)"><rect width="6" height="6"/></g>
<g transform="translate(770,638) scale(3.7766666666667)"><rect width="6" height="6"/></g>
<g transform="translate(792,638) scale(3.7766666666667)"><rect width="6" height="6"/></g>
<g transform="translate(814,638) scale(3.7766666666667)"><rect width="6" height="6"/></g>
<g transform="translate(858,638) scale(3.7766666666667)"><rect width="6" height="6"/></g>
<g transform="translate(44,660) scale(3.7766666666667)"><rect width="6" height="6"/></g>
<g transform="translate(88,660) scale(3.7766666666667)"><rect width="6" height="6"/></g>
<g transform="translate(110,660) scale(3.7766666666667)"><rect width="6" height="6"/></g>
<g transform="translate(176,660) scale(3.7766666666667)"><rect width="6" height="6"/></g>
<g transform="translate(198,660) scale(3.7766666666667)"><rect width="6" height="6"/></g>
<g transform="translate(242,660) scale(3.7766666666667)"><rect width="6" height="6"/></g>
<g transform="translate(286,660) scale(3.7766666666667)"><rect width="6" height="6"/></g>
<g transform="translate(330,660) scale(3.7766666666667)"><rect width="6" height="6"/></g>
<g transform="translate(352,660) scale(3.7766666666667)"><rect width="6" height="6"/></g>
<g transform="translate(396,660) scale(3.7766666666667)"><rect width="6" height="6"/></g>
<g transform="translate(418,660) scale(3.7766666666667)"><rect width="6" height="6"/></g>
<g transform="translate(506,660) scale(3.7766666666667)"><rect width="6" height="6"/></g>
<g transform="translate(550,660) scale(3.7766666666667)"><rect width="6" height="6"/></g>
<g transform="translate(572,660) scale(3.7766666666667)"><rect width="6" height="6"/></g>
<g transform="translate(594,660) scale(3.7766666666667)"><rect width="6" height="6"/></g>
<g transform="translate(616,660) scale(3.7766666666667)"><rect width="6" height="6"/></g>
<g transform="translate(660,660) scale(3.7766666666667)"><rect width="6" height="6"/></g>
<g transform="translate(682,660) scale(3.7766666666667)"><rect width="6" height="6"/></g>
<g transform="translate(726,660) scale(3.7766666666667)"><rect width="6" height="6"/></g>
<g transform="translate(770,660) scale(3.7766666666667)"><rect width="6" height="6"/></g>
<g transform="translate(858,660) scale(3.7766666666667)"><rect width="6" height="6"/></g>
<g transform="translate(880,660) scale(3.7766666666667)"><rect width="6" height="6"/></g>
<g transform="translate(44,682) scale(3.7766666666667)"><rect width="6" height="6"/></g>
<g transform="translate(66,682) scale(3.7766666666667)"><rect width="6" height="6"/></g>
<g transform="translate(154,682) scale(3.7766666666667)"><rect width="6" height="6"/></g>
<g transform="translate(198,682) scale(3.7766666666667)"><rect width="6" height="6"/></g>
<g transform="translate(220,682) scale(3.7766666666667)"><rect width="6" height="6"/></g>
<g transform="translate(286,682) scale(3.7766666666667)"><rect width="6" height="6"/></g>
<g transform="translate(374,682) scale(3.7766666666667)"><rect width="6" height="6"/></g>
<g transform="translate(418,682) scale(3.7766666666667)"><rect width="6" height="6"/></g>
<g transform="translate(484,682) scale(3.7766666666667)"><rect width="6" height="6"/></g>
<g transform="translate(506,682) scale(3.7766666666667)"><rect width="6" height="6"/></g>
<g transform="translate(594,682) scale(3.7766666666667)"><rect width="6" height="6"/></g>
<g transform="translate(638,682) scale(3.7766666666667)"><rect width="6" height="6"/></g>
<g transform="translate(704,682) scale(3.7766666666667)"><rect width="6" height="6"/></g>
<g transform="translate(726,682) scale(3.7766666666667)"><rect width="6" height="6"/></g>
<g transform="translate(748,682) scale(3.7766666666667)"><rect width="6" height="6"/></g>
<g transform="translate(770,682) scale(3.7766666666667)"><rect width="6" height="6"/></g>
<g transform="translate(792,682) scale(3.7766666666667)"><rect width="6" height="6"/></g>
<g transform="translate(814,682) scale(3.7766666666667)"><rect width="6" height="6"/></g>
<g transform="translate(836,682) scale(3.7766666666667)"><rect width="6" height="6"/></g>
<g transform="translate(858,682) scale(3.7766666666667)"><rect width="6" height="6"/></g>
<g transform="translate(880,682) scale(3.7766666666667)"><rect width="6" height="6"/></g>
<g transform="translate(924,682) scale(3.7766666666667)"><rect width="6" height="6"/></g>
<g transform="translate(44,704) scale(3.7766666666667)"><rect width="6" height="6"/></g>
<g transform="translate(88,704) scale(3.7766666666667)"><rect width="6" height="6"/></g>
<g transform="translate(132,704) scale(3.7766666666667)"><rect width="6" height="6"/></g>
<g transform="translate(154,704) scale(3.7766666666667)"><rect width="6" height="6"/></g>
<g transform="translate(176,704) scale(3.7766666666667)"><rect width="6" height="6"/></g>
<g transform="translate(198,704) scale(3.7766666666667)"><rect width="6" height="6"/></g>
<g transform="translate(242,704) scale(3.7766666666667)"><rect width="6" height="6"/></g>
<g transform="translate(286,704) scale(3.7766666666667)"><rect width="6" height="6"/></g>
<g transform="translate(308,704) scale(3.7766666666667)"><rect width="6" height="6"/></g>
<g transform="translate(396,704) scale(3.7766666666667)"><rect width="6" height="6"/></g>
<g transform="translate(440,704) scale(3.7766666666667)"><rect width="6" height="6"/></g>
<g transform="translate(462,704) scale(3.7766666666667)"><rect width="6" height="6"/></g>
<g transform="translate(484,704) scale(3.7766666666667)"><rect width="6" height="6"/></g>
<g transform="translate(550,704) scale(3.7766666666667)"><rect width="6" height="6"/></g>
<g transform="translate(572,704) scale(3.7766666666667)"><rect width="6" height="6"/></g>
<g transform="translate(594,704) scale(3.7766666666667)"><rect width="6" height="6"/></g>
<g transform="translate(616,704) scale(3.7766666666667)"><rect width="6" height="6"/></g>
<g transform="translate(638,704) scale(3.7766666666667)"><rect width="6" height="6"/></g>
<g transform="translate(660,704) scale(3.7766666666667)"><rect width="6" height="6"/></g>
<g transform="translate(748,704) scale(3.7766666666667)"><rect width="6" height="6"/></g>
<g transform="translate(770,704) scale(3.7766666666667)"><rect width="6" height="6"/></g>
<g transform="translate(792,704) scale(3.7766666666667)"><rect width="6" height="6"/></g>
<g transform="translate(858,704) scale(3.7766666666667)"><rect width="6" height="6"/></g>
<g transform="translate(880,704) scale(3.7766666666667)"><rect width="6" height="6"/></g>
<g transform="translate(44,726) scale(3.7766666666667)"><rect width="6" height="6"/></g>
<g transform="translate(88,726) scale(3.7766666666667)"><rect width="6" height="6"/></g>
<g transform="translate(154,726) scale(3.7766666666667)"><rect width="6" height="6"/></g>
<g transform="translate(198,726) scale(3.7766666666667)"><rect width="6" height="6"/></g>
<g transform="translate(220,726) scale(3.7766666666667)"><rect width="6" height="6"/></g>
<g transform="translate(264,726) scale(3.7766666666667)"><rect width="6" height="6"/></g>
<g transform="translate(286,726) scale(3.7766666666667)"><rect width="6" height="6"/></g>
<g transform="translate(308,726) scale(3.7766666666667)"><rect width="6" height="6"/></g>
<g transform="translate(330,726) scale(3.7766666666667)"><rect width="6" height="6"/></g>
<g transform="translate(396,726) scale(3.7766666666667)"><rect width="6" height="6"/></g>
<g transform="translate(418,726) scale(3.7766666666667)"><rect width="6" height="6"/></g>
<g transform="translate(484,726) scale(3.7766666666667)"><rect width="6" height="6"/></g>
<g transform="translate(550,726) scale(3.7766666666667)"><rect width="6" height="6"/></g>
<g transform="translate(616,726) scale(3.7766666666667)"><rect width="6" height="6"/></g>
<g transform="translate(638,726) scale(3.7766666666667)"><rect width="6" height="6"/></g>
<g transform="translate(704,726) scale(3.7766666666667)"><rect width="6" height="6"/></g>
<g transform="translate(748,726) scale(3.7766666666667)"><rect width="6" height="6"/></g>
<g transform="translate(770,726) scale(3.7766666666667)"><rect width="6" height="6"/></g>
<g transform="translate(792,726) scale(3.7766666666667)"><rect width="6" height="6"/></g>
<g transform="translate(814,726) scale(3.7766666666667)"><rect width="6" height="6"/></g>
<g transform="translate(836,726) scale(3.7766666666667)"><rect width="6" height="6"/></g>
<g transform="translate(858,726) scale(3.7766666666667)"><rect width="6" height="6"/></g>
<g transform="translate(44,748) scale(3.7766666666667)"><rect width="6" height="6"/></g>
<g transform="translate(110,748) scale(3.7766666666667)"><rect width="6" height="6"/></g>
<g transform="translate(154,748) scale(3.7766666666667)"><rect width="6" height="6"/></g>
<g transform="translate(176,748) scale(3.7766666666667)"><rect width="6" height="6"/></g>
<g transform="translate(198,748) scale(3.7766666666667)"><rect width="6" height="6"/></g>
<g transform="translate(242,748) scale(3.7766666666667)"><rect width="6" height="6"/></g>
<g transform="translate(264,748) scale(3.7766666666667)"><rect width="6" height="6"/></g>
<g transform="translate(308,748) scale(3.7766666666667)"><rect width="6" height="6"/></g>
<g transform="translate(330,748) scale(3.7766666666667)"><rect width="6" height="6"/></g>
<g transform="translate(352,748) scale(3.7766666666667)"><rect width="6" height="6"/></g>
<g transform="translate(374,748) scale(3.7766666666667)"><rect width="6" height="6"/></g>
<g transform="translate(418,748) scale(3.7766666666667)"><rect width="6" height="6"/></g>
<g transform="translate(440,748) scale(3.7766666666667)"><rect width="6" height="6"/></g>
<g transform="translate(550,748) scale(3.7766666666667)"><rect width="6" height="6"/></g>
<g transform="translate(572,748) scale(3.7766666666667)"><rect width="6" height="6"/></g>
<g transform="translate(594,748) scale(3.7766666666667)"><rect width="6" height="6"/></g>
<g transform="translate(616,748) scale(3.7766666666667)"><rect width="6" height="6"/></g>
<g transform="translate(638,748) scale(3.7766666666667)"><rect width="6" height="6"/></g>
<g transform="translate(660,748) scale(3.7766666666667)"><rect width="6" height="6"/></g>
<g transform="translate(682,748) scale(3.7766666666667)"><rect width="6" height="6"/></g>
<g transform="translate(726,748) scale(3.7766666666667)"><rect width="6" height="6"/></g>
<g transform="translate(748,748) scale(3.7766666666667)"><rect width="6" height="6"/></g>
<g transform="translate(770,748) scale(3.7766666666667)"><rect width="6" height="6"/></g>
<g transform="translate(792,748) scale(3.7766666666667)"><rect width="6" height="6"/></g>
<g transform="translate(814,748) scale(3.7766666666667)"><rect width="6" height="6"/></g>
<g transform="translate(836,748) scale(3.7766666666667)"><rect width="6" height="6"/></g>
<g transform="translate(880,748) scale(3.7766666666667)"><rect width="6" height="6"/></g>
<g transform="translate(220,770) scale(3.7766666666667)"><rect width="6" height="6"/></g>
<g transform="translate(264,770) scale(3.7766666666667)"><rect width="6" height="6"/></g>
<g transform="translate(286,770) scale(3.7766666666667)"><rect width="6" height="6"/></g>
<g transform="translate(330,770) scale(3.7766666666667)"><rect width="6" height="6"/></g>
<g transform="translate(374,770) scale(3.7766666666667)"><rect width="6" height="6"/></g>
<g transform="translate(396,770) scale(3.7766666666667)"><rect width="6" height="6"/></g>
<g transform="translate(418,770) scale(3.7766666666667)"><rect width="6" height="6"/></g>
<g transform="translate(462,770) scale(3.7766666666667)"><rect width="6" height="6"/></g>
<g transform="translate(484,770) scale(3.7766666666667)"><rect width="6" height="6"/></g>
<g transform="translate(528,770) scale(3.7766666666667)"><rect width="6" height="6"/></g>
<g transform="translate(550,770) scale(3.7766666666667)"><rect width="6" height="6"/></g>
<g transform="translate(660,770) scale(3.7766666666667)"><rect width="6" height="6"/></g>
<g transform="translate(682,770) scale(3.7766666666667)"><rect width="6" height="6"/></g>
<g transform="translate(704,770) scale(3.7766666666667)"><rect width="6" height="6"/></g>
<g transform="translate(748,770) scale(3.7766666666667)"><rect width="6" height="6"/></g>
<g transform="translate(836,770) scale(3.7766666666667)"><rect width="6" height="6"/></g>
<g transform="translate(902,770) scale(3.7766666666667)"><rect width="6" height="6"/></g>
<g transform="translate(924,770) scale(3.7766666666667)"><rect width="6" height="6"/></g>
<g transform="translate(220,792) scale(3.7766666666667)"><rect width="6" height="6"/></g>
<g transform="translate(264,792) scale(3.7766666666667)"><rect width="6" height="6"/></g>
<g transform="translate(330,792) scale(3.7766666666667)"><rect width="6" height="6"/></g>
<g transform="translate(418,792) scale(3.7766666666667)"><rect width="6" height="6"/></g>
<g transform="translate(440,792) scale(3.7766666666667)"><rect width="6" height="6"/></g>
<g transform="translate(484,792) scale(3.7766666666667)"><rect width="6" height="6"/></g>
<g transform="translate(506,792) scale(3.7766666666667)"><rect width="6" height="6"/></g>
<g transform="translate(528,792) scale(3.7766666666667)"><rect width="6" height="6"/></g>
<g transform="translate(572,792) scale(3.7766666666667)"><rect width="6" height="6"/></g>
<g transform="translate(638,792) scale(3.7766666666667)"><rect width="6" height="6"/></g>
<g transform="translate(660,792) scale(3.7766666666667)"><rect width="6" height="6"/></g>
<g transform="translate(682,792) scale(3.7766666666667)"><rect width="6" height="6"/></g>
<g transform="translate(726,792) scale(3.7766666666667)"><rect width="6" height="6"/></g>
<g transform="translate(748,792) scale(3.7766666666667)"><rect width="6" height="6"/></g>
<g transform="translate(792,792) scale(3.7766666666667)"><rect width="6" height="6"/></g>
<g transform="translate(836,792) scale(3.7766666666667)"><rect width="6" height="6"/></g>
<g transform="translate(880,792) scale(3.7766666666667)"><rect width="6" height="6"/></g>
<g transform="translate(902,792) scale(3.7766666666667)"><rect width="6" height="6"/></g>
<g transform="translate(220,814) scale(3.7766666666667)"><rect width="6" height="6"/></g>
<g transform="translate(242,814) scale(3.7766666666667)"><rect width="6" height="6"/></g>
<g transform="translate(286,814) scale(3.7766666666667)"><rect width="6" height="6"/></g>
<g transform="translate(308,814) scale(3.7766666666667)"><rect width="6" height="6"/></g>
<g transform="translate(330,814) scale(3.7766666666667)"><rect width="6" height="6"/></g>
<g transform="translate(396,814) scale(3.7766666666667)"><rect width="6" height="6"/></g>
<g transform="translate(418,814) scale(3.7766666666667)"><rect width="6" height="6"/></g>
<g transform="translate(440,814) scale(3.7766666666667)"><rect width="6" height="6"/></g>
<g transform="translate(462,814) scale(3.7766666666667)"><rect width="6" height="6"/></g>
<g transform="translate(528,814) scale(3.7766666666667)"><rect width="6" height="6"/></g>
<g transform="translate(550,814) scale(3.7766666666667)"><rect width="6" height="6"/></g>
<g transform="translate(616,814) scale(3.7766666666667)"><rect width="6" height="6"/></g>
<g transform="translate(638,814) scale(3.7766666666667)"><rect width="6" height="6"/></g>
<g transform="translate(660,814) scale(3.7766666666667)"><rect width="6" height="6"/></g>
<g transform="translate(682,814) scale(3.7766666666667)"><rect width="6" height="6"/></g>
<g transform="translate(704,814) scale(3.7766666666667)"><rect width="6" height="6"/></g>
<g transform="translate(726,814) scale(3.7766666666667)"><rect width="6" height="6"/></g>
<g transform="translate(748,814) scale(3.7766666666667)"><rect width="6" height="6"/></g>
<g transform="translate(836,814) scale(3.7766666666667)"><rect width="6" height="6"/></g>
<g transform="translate(858,814) scale(3.7766666666667)"><rect width="6" height="6"/></g>
<g transform="translate(220,836) scale(3.7766666666667)"><rect width="6" height="6"/></g>
<g transform="translate(242,836) scale(3.7766666666667)"><rect width="6" height="6"/></g>
<g transform="translate(286,836) scale(3.7766666666667)"><rect width="6" height="6"/></g>
<g transform="translate(330,836) scale(3.7766666666667)"><rect width="6" height="6"/></g>
<g transform="translate(352,836) scale(3.7766666666667)"><rect width="6" height="6"/></g>
<g transform="translate(484,836) scale(3.7766666666667)"><rect width="6" height="6"/></g>
<g transform="translate(550,836) scale(3.7766666666667)"><rect width="6" height="6"/></g>
<g transform="translate(572,836) scale(3.7766666666667)"><rect width="6" height="6"/></g>
<g transform="translate(638,836) scale(3.7766666666667)"><rect width="6" height="6"/></g>
<g transform="translate(748,836) scale(3.7766666666667)"><rect width="6" height="6"/></g>
<g transform="translate(770,836) scale(3.7766666666667)"><rect width="6" height="6"/></g>
<g transform="translate(792,836) scale(3.7766666666667)"><rect width="6" height="6"/></g>
<g transform="translate(814,836) scale(3.7766666666667)"><rect width="6" height="6"/></g>
<g transform="translate(836,836) scale(3.7766666666667)"><rect width="6" height="6"/></g>
<g transform="translate(880,836) scale(3.7766666666667)"><rect width="6" height="6"/></g>
<g transform="translate(924,836) scale(3.7766666666667)"><rect width="6" height="6"/></g>
<g transform="translate(220,858) scale(3.7766666666667)"><rect width="6" height="6"/></g>
<g transform="translate(242,858) scale(3.7766666666667)"><rect width="6" height="6"/></g>
<g transform="translate(308,858) scale(3.7766666666667)"><rect width="6" height="6"/></g>
<g transform="translate(352,858) scale(3.7766666666667)"><rect width="6" height="6"/></g>
<g transform="translate(374,858) scale(3.7766666666667)"><rect width="6" height="6"/></g>
<g transform="translate(484,858) scale(3.7766666666667)"><rect width="6" height="6"/></g>
<g transform="translate(506,858) scale(3.7766666666667)"><rect width="6" height="6"/></g>
<g transform="translate(550,858) scale(3.7766666666667)"><rect width="6" height="6"/></g>
<g transform="translate(616,858) scale(3.7766666666667)"><rect width="6" height="6"/></g>
<g transform="translate(660,858) scale(3.7766666666667)"><rect width="6" height="6"/></g>
<g transform="translate(704,858) scale(3.7766666666667)"><rect width="6" height="6"/></g>
<g transform="translate(726,858) scale(3.7766666666667)"><rect width="6" height="6"/></g>
<g transform="translate(748,858) scale(3.7766666666667)"><rect width="6" height="6"/></g>
<g transform="translate(770,858) scale(3.7766666666667)"><rect width="6" height="6"/></g>
<g transform="translate(814,858) scale(3.7766666666667)"><rect width="6" height="6"/></g>
<g transform="translate(902,858) scale(3.7766666666667)"><rect width="6" height="6"/></g>
<g transform="translate(220,880) scale(3.7766666666667)"><rect width="6" height="6"/></g>
<g transform="translate(264,880) scale(3.7766666666667)"><rect width="6" height="6"/></g>
<g transform="translate(374,880) scale(3.7766666666667)"><rect width="6" height="6"/></g>
<g transform="translate(396,880) scale(3.7766666666667)"><rect width="6" height="6"/></g>
<g transform="translate(418,880) scale(3.7766666666667)"><rect width="6" height="6"/></g>
<g transform="translate(440,880) scale(3.7766666666667)"><rect width="6" height="6"/></g>
<g transform="translate(462,880) scale(3.7766666666667)"><rect width="6" height="6"/></g>
<g transform="translate(484,880) scale(3.7766666666667)"><rect width="6" height="6"/></g>
<g transform="translate(572,880) scale(3.7766666666667)"><rect width="6" height="6"/></g>
<g transform="translate(594,880) scale(3.7766666666667)"><rect width="6" height="6"/></g>
<g transform="translate(638,880) scale(3.7766666666667)"><rect width="6" height="6"/></g>
<g transform="translate(726,880) scale(3.7766666666667)"><rect width="6" height="6"/></g>
<g transform="translate(748,880) scale(3.7766666666667)"><rect width="6" height="6"/></g>
<g transform="translate(770,880) scale(3.7766666666667)"><rect width="6" height="6"/></g>
<g transform="translate(792,880) scale(3.7766666666667)"><rect width="6" height="6"/></g>
<g transform="translate(814,880) scale(3.7766666666667)"><rect width="6" height="6"/></g>
<g transform="translate(836,880) scale(3.7766666666667)"><rect width="6" height="6"/></g>
<g transform="translate(858,880) scale(3.7766666666667)"><rect width="6" height="6"/></g>
<g transform="translate(880,880) scale(3.7766666666667)"><rect width="6" height="6"/></g>
<g transform="translate(220,902) scale(3.7766666666667)"><rect width="6" height="6"/></g>
<g transform="translate(264,902) scale(3.7766666666667)"><rect width="6" height="6"/></g>
<g transform="translate(286,902) scale(3.7766666666667)"><rect width="6" height="6"/></g>
<g transform="translate(308,902) scale(3.7766666666667)"><rect width="6" height="6"/></g>
<g transform="translate(352,902) scale(3.7766666666667)"><rect width="6" height="6"/></g>
<g transform="translate(396,902) scale(3.7766666666667)"><rect width="6" height="6"/></g>
<g transform="translate(462,902) scale(3.7766666666667)"><rect width="6" height="6"/></g>
<g transform="translate(484,902) scale(3.7766666666667)"><rect width="6" height="6"/></g>
<g transform="translate(550,902) scale(3.7766666666667)"><rect width="6" height="6"/></g>
<g transform="translate(572,902) scale(3.7766666666667)"><rect width="6" height="6"/></g>
<g transform="translate(616,902) scale(3.7766666666667)"><rect width="6" height="6"/></g>
<g transform="translate(638,902) scale(3.7766666666667)"><rect width="6" height="6"/></g>
<g transform="translate(660,902) scale(3.7766666666667)"><rect width="6" height="6"/></g>
<g transform="translate(704,902) scale(3.7766666666667)"><rect width="6" height="6"/></g>
<g transform="translate(748,902) scale(3.7766666666667)"><rect width="6" height="6"/></g>
<g transform="translate(770,902) scale(3.7766666666667)"><rect width="6" height="6"/></g>
<g transform="translate(836,902) scale(3.7766666666667)"><rect width="6" height="6"/></g>
<g transform="translate(902,902) scale(3.7766666666667)"><rect width="6" height="6"/></g>
<g transform="translate(242,924) scale(3.7766666666667)"><rect width="6" height="6"/></g>
<g transform="translate(264,924) scale(3.7766666666667)"><rect width="6" height="6"/></g>
<g transform="translate(286,924) scale(3.7766666666667)"><rect width="6" height="6"/></g>
<g transform="translate(308,924) scale(3.7766666666667)"><rect width="6" height="6"/></g>
<g transform="translate(330,924) scale(3.7766666666667)"><rect width="6" height="6"/></g>
<g transform="translate(374,924) scale(3.7766666666667)"><rect width="6" height="6"/></g>
<g transform="translate(396,924) scale(3.7766666666667)"><rect width="6" height="6"/></g>
<g transform="translate(418,924) scale(3.7766666666667)"><rect width="6" height="6"/></g>
<g transform="translate(506,924) scale(3.7766666666667)"><rect width="6" height="6"/></g>
<g transform="translate(572,924) scale(3.7766666666667)"><rect width="6" height="6"/></g>
<g transform="translate(594,924) scale(3.7766666666667)"><rect width="6" height="6"/></g>
<g transform="translate(616,924) scale(3.7766666666667)"><rect width="6" height="6"/></g>
<g transform="translate(682,924) scale(3.7766666666667)"><rect width="6" height="6"/></g>
<g transform="translate(726,924) scale(3.7766666666667)"><rect width="6" height="6"/></g>
<g transform="translate(814,924) scale(3.7766666666667)"><rect width="6" height="6"/></g>
<g transform="translate(836,924) scale(3.7766666666667)"><rect width="6" height="6"/></g>
<g transform="translate(880,924) scale(3.7766666666667)"><rect width="6" height="6"/></g>
<g transform="translate(44,44)"><g transform="scale(11)"><path d="M0,0v14h14V0H0z M12,12H2V2h10V12z"/></g></g>
<g transform="translate(792,44)"><g transform="scale(11)"><path d="M0,0v14h14V0H0z M12,12H2V2h10V12z"/></g></g>
<g transform="translate(44,792)"><g transform="scale(11)"><path d="M0,0v14h14V0H0z M12,12H2V2h10V12z"/></g></g>
<g transform="translate(88,88)"><g transform="scale(11)"><rect width="6" height="6"/></g></g>
<g transform="translate(836,88)"><g transform="scale(11)"><rect width="6" height="6"/></g></g>
<g transform="translate(88,836)"><g transform="scale(11)"><rect width="6" height="6"/></g></g>
</g></svg>
